2025-07-21 15:25:24,687 - INFO - Job 642bfe62-62a8-4539-8525-f4cb42665793 initialized.
2025-07-21 15:25:24,690 - INFO - Original input file: Z:\landing_point\Video\Inception\Inception_t01.mkv
2025-07-21 15:25:24,698 - INFO - Final output file: Z:\landing_point\Video\Inception\Inception_t01_DV_P8.mkv
2025-07-21 15:25:24,710 - INFO - Local job staging directory: H:\staging\642bfe62-62a8-4539-8525-f4cb42665793
2025-07-21 15:25:24,712 - INFO - Disk space for Local Staging SSD (H:\staging):
2025-07-21 15:25:24,713 - INFO -   - Total: 3726.01 GB
2025-07-21 15:25:24,713 - INFO -   - Used: 2098.28 GB
2025-07-21 15:25:24,714 - INFO -   - Free: 1627.73 GB
2025-07-21 15:25:24,714 - INFO - === Entering transcode() for job 642bfe62-62a8-4539-8525-f4cb42665793 ===
2025-07-21 15:25:24,715 - INFO - Job dict: {
  "id": "642bfe62-62a8-4539-8525-f4cb42665793",
  "input_path": "\"Z:\\landing_point\\Video\\Inception\\Inception_t01.mkv\"",
  "job_type": "standard",
  "status": "running",
  "worker_id": "CJBLANK",
  "output_path": null,
  "added_at": 1752956659.5314922,
  "retries": 1,
  "steps": {
    "copy_source": "pending",
    "get_metadata": "pending",
    "reencode_x265": "pending",
    "move_final": "pending"
  },
  "claimed_at": 1753133124.547647
}
2025-07-21 15:25:24,723 - INFO - === Starting transcode pipeline for job 642bfe62-62a8-4539-8525-f4cb42665793 ===
2025-07-21 15:25:24,723 - INFO - Job dict: {'id': '642bfe62-62a8-4539-8525-f4cb42665793', 'input_path': '"Z:\\landing_point\\Video\\Inception\\Inception_t01.mkv"', 'job_type': 'standard', 'status': 'running', 'worker_id': 'CJBLANK', 'output_path': None, 'added_at': 1752956659.5314922, 'retries': 1, 'steps': {'copy_source': 'pending', 'get_metadata': 'pending', 'reencode_x265': 'pending', 'move_final': 'pending'}, 'claimed_at': 1753133124.547647}
2025-07-21 15:25:24,724 - INFO - Starting step: copy_source - Copying source file locally
2025-07-21 15:25:24,734 - INFO - Copying source file locally: from Z:\landing_point\Video\Inception\Inception_t01.mkv to H:\staging\642bfe62-62a8-4539-8525-f4cb42665793\Inception_t01.mkv
2025-07-21 15:40:18,470 - INFO - Copy successful.
2025-07-21 15:40:18,542 - INFO - Starting step: get_metadata - Getting video metadata
2025-07-21 15:40:18,544 - INFO - Attempting to get video metadata from H:\staging\642bfe62-62a8-4539-8525-f4cb42665793\Inception_t01.mkv
2025-07-21 15:40:18,679 - INFO - Successfully got frame rate: 23.976 fps.
2025-07-21 15:40:18,763 - INFO - Successfully got frame count from tag 'NUMBER_OF_FRAMES-eng': 213106 frames.
2025-07-21 15:40:18,797 - INFO - Starting step: reencode_x265 - Re-encoding and Muxing
2025-07-21 15:40:18,805 - INFO - Executing ffmpeg command: ffmpeg -fflags +genpts -i "H:\staging\642bfe62-62a8-4539-8525-f4cb42665793\Inception_t01.mkv" -map 0 -c:v libx265 -preset medium -crf 18 -threads 10 -x265-params pools=10:no-sao=1:early-skip=1:rd=3:me=hex -c:a copy -c:s copy -y "H:\staging\642bfe62-62a8-4539-8525-f4cb42665793\Inception_t01_x265.mkv"
2025-07-21 15:40:18,888 - ERROR - ffmpeg version 7.1.1-full_build-www.gyan.dev Copyright (c) 2000-2025 the FFmpeg developers
2025-07-21 15:40:18,895 - ERROR - built with gcc 14.2.0 (Rev1, Built by MSYS2 project)
2025-07-21 15:40:18,903 - ERROR - configuration: --enable-gpl --enable-version3 --enable-static --disable-w32threads --disable-autodetect --enable-fontconfig --enable-iconv --enable-gnutls --enable-lcms2 --enable-libxml2 --enable-gmp --enable-bzlib --enable-lzma --enable-libsnappy --enable-zlib --enable-librist --enable-libsrt --enable-libssh --enable-libzmq --enable-avisynth --enable-libbluray --enable-libcaca --enable-libdvdnav --enable-libdvdread --enable-sdl2 --enable-libaribb24 --enable-libaribcaption --enable-libdav1d --enable-libdavs2 --enable-libopenjpeg --enable-libquirc --enable-libuavs3d --enable-libxevd --enable-libzvbi --enable-libqrencode --enable-librav1e --enable-libsvtav1 --enable-libvvenc --enable-libwebp --enable-libx264 --enable-libx265 --enable-libxavs2 --enable-libxeve --enable-libxvid --enable-libaom --enable-libjxl --enable-libvpx --enable-mediafoundation --enable-libass --enable-frei0r --enable-libfreetype --enable-libfribidi --enable-libharfbuzz --enable-liblensfun --enable-libvidstab --enable-libvmaf --enable-libzimg --enable-amf --enable-cuda-llvm --enable-cuvid --enable-dxva2 --enable-d3d11va --enable-d3d12va --enable-ffnvcodec --enable-libvpl --enable-nvdec --enable-nvenc --enable-vaapi --enable-libshaderc --enable-vulkan --enable-libplacebo --enable-opencl --enable-libcdio --enable-libgme --enable-libmodplug --enable-libopenmpt --enable-libopencore-amrwb --enable-libmp3lame --enable-libshine --enable-libtheora --enable-libtwolame --enable-libvo-amrwbenc --enable-libcodec2 --enable-libilbc --enable-libgsm --enable-liblc3 --enable-libopencore-amrnb --enable-libopus --enable-libspeex --enable-libvorbis --enable-ladspa --enable-libbs2b --enable-libflite --enable-libmysofa --enable-librubberband --enable-libsoxr --enable-chromaprint
2025-07-21 15:40:18,906 - ERROR - libavutil      59. 39.100 / 59. 39.100
2025-07-21 15:40:18,913 - ERROR - libavcodec     61. 19.101 / 61. 19.101
2025-07-21 15:40:18,921 - ERROR - libavformat    61.  7.100 / 61.  7.100
2025-07-21 15:40:18,929 - ERROR - libavdevice    61.  3.100 / 61.  3.100
2025-07-21 15:40:18,936 - ERROR - libavfilter    10.  4.100 / 10.  4.100
2025-07-21 15:40:18,944 - ERROR - libswscale      8.  3.100 /  8.  3.100
2025-07-21 15:40:18,946 - ERROR - libswresample   5.  3.100 /  5.  3.100
2025-07-21 15:40:18,946 - ERROR - libpostproc    58.  3.100 / 58.  3.100
2025-07-21 15:40:18,947 - ERROR - [matroska,webm @ 0000021801ed89c0] Could not find codec parameters for stream 4 (Subtitle: hdmv_pgs_subtitle (pgssub)): unspecified size
2025-07-21 15:40:18,947 - ERROR - Consider increasing the value for the 'analyzeduration' (0) and 'probesize' (5000000) options
2025-07-21 15:40:18,948 - ERROR - Input #0, matroska,webm, from 'H:\staging\642bfe62-62a8-4539-8525-f4cb42665793\Inception_t01.mkv':
2025-07-21 15:40:18,949 - ERROR - Metadata:
2025-07-21 15:40:18,949 - ERROR - title           : Inception
2025-07-21 15:40:18,950 - ERROR - encoder         : libmakemkv v1.18.1 (1.3.10/1.5.2) win(x64-release)
2025-07-21 15:40:18,950 - ERROR - creation_time   : 2025-06-01T18:54:30.000000Z
2025-07-21 15:40:18,951 - ERROR - Duration: 02:28:08.30, start: 0.000000, bitrate: 65238 kb/s
2025-07-21 15:40:18,952 - ERROR - Chapters:
2025-07-21 15:40:18,952 - ERROR - Chapter #0:0: start 0.000000, end 701.701000
2025-07-21 15:40:18,953 - ERROR - Metadata:
2025-07-21 15:40:18,954 - ERROR - title           : Chapter 01
2025-07-21 15:40:18,954 - ERROR - Chapter #0:1: start 701.701000, end 1297.296000
2025-07-21 15:40:18,955 - ERROR - Metadata:
2025-07-21 15:40:18,955 - ERROR - title           : Chapter 02
2025-07-21 15:40:18,956 - ERROR - Chapter #0:2: start 1297.296000, end 1880.295083
2025-07-21 15:40:18,956 - ERROR - Metadata:
2025-07-21 15:40:18,957 - ERROR - title           : Chapter 03
2025-07-21 15:40:18,958 - ERROR - Chapter #0:3: start 1880.295083, end 2481.979500
2025-07-21 15:40:18,958 - ERROR - Metadata:
2025-07-21 15:40:18,959 - ERROR - title           : Chapter 04
2025-07-21 15:40:18,959 - ERROR - Chapter #0:4: start 2481.979500, end 3073.695625
2025-07-21 15:40:18,960 - ERROR - Metadata:
2025-07-21 15:40:18,961 - ERROR - title           : Chapter 05
2025-07-21 15:40:18,961 - ERROR - Chapter #0:5: start 3073.695625, end 3681.511167
2025-07-21 15:40:18,962 - ERROR - Metadata:
2025-07-21 15:40:18,962 - ERROR - title           : Chapter 06
2025-07-21 15:40:18,963 - ERROR - Chapter #0:6: start 3681.511167, end 4229.600375
2025-07-21 15:40:18,964 - ERROR - Metadata:
2025-07-21 15:40:18,964 - ERROR - title           : Chapter 07
2025-07-21 15:40:18,965 - ERROR - Chapter #0:7: start 4229.600375, end 4935.555625
2025-07-21 15:40:18,966 - ERROR - Metadata:
2025-07-21 15:40:18,966 - ERROR - title           : Chapter 08
2025-07-21 15:40:18,967 - ERROR - Chapter #0:8: start 4935.555625, end 5512.465292
2025-07-21 15:40:18,967 - ERROR - Metadata:
2025-07-21 15:40:18,968 - ERROR - title           : Chapter 09
2025-07-21 15:40:18,969 - ERROR - Chapter #0:9: start 5512.465292, end 6038.490792
2025-07-21 15:40:18,969 - ERROR - Metadata:
2025-07-21 15:40:18,970 - ERROR - title           : Chapter 10
2025-07-21 15:40:18,971 - ERROR - Chapter #0:10: start 6038.490792, end 6682.133792
2025-07-21 15:40:18,971 - ERROR - Metadata:
2025-07-21 15:40:18,972 - ERROR - title           : Chapter 11
2025-07-21 15:40:18,972 - ERROR - Chapter #0:11: start 6682.133792, end 7254.372125
2025-07-21 15:40:18,973 - ERROR - Metadata:
2025-07-21 15:40:18,974 - ERROR - title           : Chapter 12
2025-07-21 15:40:18,974 - ERROR - Chapter #0:12: start 7254.372125, end 7808.717583
2025-07-21 15:40:18,975 - ERROR - Metadata:
2025-07-21 15:40:18,975 - ERROR - title           : Chapter 13
2025-07-21 15:40:18,976 - ERROR - Chapter #0:13: start 7808.717583, end 8455.447000
2025-07-21 15:40:18,977 - ERROR - Metadata:
2025-07-21 15:40:18,978 - ERROR - title           : Chapter 14
2025-07-21 15:40:18,978 - ERROR - Chapter #0:14: start 8455.447000, end 8888.298667
2025-07-21 15:40:18,979 - ERROR - Metadata:
2025-07-21 15:40:18,979 - ERROR - title           : Chapter 15
2025-07-21 15:40:18,980 - ERROR - Stream #0:0(eng): Video: hevc (Main 10), yuv420p10le(tv, bt2020nc/bt2020/smpte2084), 3840x2160 [SAR 1:1 DAR 16:9], 23.98 fps, 23.98 tbr, 1k tbn
2025-07-21 15:40:18,981 - ERROR - Metadata:
2025-07-21 15:40:18,981 - ERROR - BPS-eng         : 59230802
2025-07-21 15:40:18,982 - ERROR - DURATION-eng    : 02:28:08.296083333
2025-07-21 15:40:18,983 - ERROR - NUMBER_OF_FRAMES-eng: 213106
2025-07-21 15:40:18,983 - ERROR - NUMBER_OF_BYTES-eng: 65807612677
2025-07-21 15:40:18,984 - ERROR - SOURCE_ID-eng   : 001011
2025-07-21 15:40:18,985 - ERROR - _STATISTICS_WRITING_APP-eng: MakeMKV v1.18.1 win(x64-release)
2025-07-21 15:40:18,985 - ERROR - _STATISTICS_WRITING_DATE_UTC-eng: 2025-06-01 18:54:30
2025-07-21 15:40:18,986 - ERROR - _STATISTICS_TAGS-eng: BPS DURATION NUMBER_OF_FRAMES NUMBER_OF_BYTES SOURCE_ID
2025-07-21 15:40:18,986 - ERROR - Stream #0:1(eng): Audio: dts (dca) (DTS-HD MA), 48000 Hz, 5.1(side), s32p (24 bit) (default)
2025-07-21 15:40:18,987 - ERROR - Metadata:
2025-07-21 15:40:18,988 - ERROR - title           : Surround 5.1
2025-07-21 15:40:18,989 - ERROR - BPS-eng         : 3821195
2025-07-21 15:40:18,989 - ERROR - DURATION-eng    : 02:28:08.298666666
2025-07-21 15:40:18,990 - ERROR - NUMBER_OF_FRAMES-eng: 833278
2025-07-21 15:40:18,990 - ERROR - NUMBER_OF_BYTES-eng: 4245491016
2025-07-21 15:40:18,991 - ERROR - SOURCE_ID-eng   : 001100
2025-07-21 15:40:18,992 - ERROR - _STATISTICS_WRITING_APP-eng: MakeMKV v1.18.1 win(x64-release)
2025-07-21 15:40:18,992 - ERROR - _STATISTICS_WRITING_DATE_UTC-eng: 2025-06-01 18:54:30
2025-07-21 15:40:18,993 - ERROR - _STATISTICS_TAGS-eng: BPS DURATION NUMBER_OF_FRAMES NUMBER_OF_BYTES SOURCE_ID
2025-07-21 15:40:18,993 - ERROR - Stream #0:2(eng): Audio: dts (dca) (DTS), 48000 Hz, 5.1(side), fltp, 1536 kb/s
2025-07-21 15:40:18,994 - ERROR - Metadata:
2025-07-21 15:40:18,995 - ERROR - title           : Surround 5.1
2025-07-21 15:40:18,996 - ERROR - BPS-eng         : 1509000
2025-07-21 15:40:18,996 - ERROR - DURATION-eng    : 02:28:08.298666666
2025-07-21 15:40:18,997 - ERROR - NUMBER_OF_FRAMES-eng: 833278
2025-07-21 15:40:18,998 - ERROR - NUMBER_OF_BYTES-eng: 1676555336
2025-07-21 15:40:18,998 - ERROR - SOURCE_ID-eng   : 001100
2025-07-21 15:40:18,999 - ERROR - _STATISTICS_WRITING_APP-eng: MakeMKV v1.18.1 win(x64-release)
2025-07-21 15:40:19,000 - ERROR - _STATISTICS_WRITING_DATE_UTC-eng: 2025-06-01 18:54:30
2025-07-21 15:40:19,000 - ERROR - _STATISTICS_TAGS-eng: BPS DURATION NUMBER_OF_FRAMES NUMBER_OF_BYTES SOURCE_ID
2025-07-21 15:40:19,001 - ERROR - Stream #0:3(eng): Audio: ac3, 48000 Hz, 5.1(side), fltp, 640 kb/s
2025-07-21 15:40:19,002 - ERROR - Metadata:
2025-07-21 15:40:19,002 - ERROR - title           : Surround 5.1
2025-07-21 15:40:19,003 - ERROR - BPS-eng         : 640000
2025-07-21 15:40:19,003 - ERROR - DURATION-eng    : 02:28:08.288000000
2025-07-21 15:40:19,004 - ERROR - NUMBER_OF_FRAMES-eng: 277759
2025-07-21 15:40:19,005 - ERROR - NUMBER_OF_BYTES-eng: 711063040
2025-07-21 15:40:19,005 - ERROR - SOURCE_ID-eng   : 001102
2025-07-21 15:40:19,006 - ERROR - _STATISTICS_WRITING_APP-eng: MakeMKV v1.18.1 win(x64-release)
2025-07-21 15:40:19,006 - ERROR - _STATISTICS_WRITING_DATE_UTC-eng: 2025-06-01 18:54:30
2025-07-21 15:40:19,007 - ERROR - _STATISTICS_TAGS-eng: BPS DURATION NUMBER_OF_FRAMES NUMBER_OF_BYTES SOURCE_ID
2025-07-21 15:40:19,008 - ERROR - Stream #0:4(eng): Subtitle: hdmv_pgs_subtitle (pgssub)
2025-07-21 15:40:19,008 - ERROR - Metadata:
2025-07-21 15:40:19,009 - ERROR - BPS-eng         : 32740
2025-07-21 15:40:19,010 - ERROR - DURATION-eng    : 02:27:01.833854166
2025-07-21 15:40:19,010 - ERROR - NUMBER_OF_FRAMES-eng: 3476
2025-07-21 15:40:19,011 - ERROR - NUMBER_OF_BYTES-eng: 36103846
2025-07-21 15:40:19,012 - ERROR - SOURCE_ID-eng   : 0012A1
2025-07-21 15:40:19,012 - ERROR - _STATISTICS_WRITING_APP-eng: MakeMKV v1.18.1 win(x64-release)
2025-07-21 15:40:19,013 - ERROR - _STATISTICS_WRITING_DATE_UTC-eng: 2025-06-01 18:54:30
2025-07-21 15:40:19,014 - ERROR - _STATISTICS_TAGS-eng: BPS DURATION NUMBER_OF_FRAMES NUMBER_OF_BYTES SOURCE_ID
2025-07-21 15:40:19,014 - ERROR - Stream mapping:
2025-07-21 15:40:19,015 - ERROR - Stream #0:0 -> #0:0 (hevc (native) -> hevc (libx265))
2025-07-21 15:40:19,016 - ERROR - Stream #0:1 -> #0:1 (copy)
2025-07-21 15:40:19,016 - ERROR - Stream #0:2 -> #0:2 (copy)
2025-07-21 15:40:19,017 - ERROR - Stream #0:3 -> #0:3 (copy)
2025-07-21 15:40:19,018 - ERROR - Stream #0:4 -> #0:4 (copy)
2025-07-21 15:40:19,018 - ERROR - Press [q] to stop, [?] for help
2025-07-21 15:40:19,068 - ERROR - x265 [info]: HEVC encoder version 4.1+110-0e0eee580
2025-07-21 15:40:19,070 - ERROR - x265 [info]: build info [Windows][GCC 14.2.0][64 bit] 10bit
2025-07-21 15:40:19,071 - ERROR - x265 [info]: using cpu capabilities: MMX2 SSE2Fast LZCNT SSSE3 SSE4.2 AVX FMA3 BMI2 AVX2
2025-07-21 15:40:19,071 - ERROR - x265 [warning]: Turning on repeat-headers for HDR compatibility
2025-07-21 15:40:19,072 - ERROR - x265 [info]: Main 10 profile, Level-5 (Main tier)
2025-07-21 15:40:19,073 - ERROR - x265 [info]: Thread pool created using 10 threads
2025-07-21 15:40:19,073 - ERROR - x265 [info]: Slices                              : 1
2025-07-21 15:40:19,074 - ERROR - x265 [info]: frame threads / pool features       : 10 / wpp(34 rows)
2025-07-21 15:40:19,103 - ERROR - x265 [info]: Coding QT: max CU size, min CU size : 64 / 8
2025-07-21 15:40:19,104 - ERROR - x265 [info]: Residual QT: max TU size, max depth : 32 / 1 inter / 1 intra
2025-07-21 15:40:19,106 - ERROR - x265 [info]: ME / range / subpel / merge         : hex / 57 / 2 / 3
2025-07-21 15:40:19,107 - ERROR - x265 [info]: Keyframe min / max / scenecut / bias  : 23 / 250 / 40 / 5.00
2025-07-21 15:40:19,108 - ERROR - x265 [info]: Lookahead / bframes / badapt        : 20 / 4 / 2
2025-07-21 15:40:19,109 - ERROR - x265 [info]: b-pyramid / weightp / weightb       : 1 / 1 / 0
2025-07-21 15:40:19,110 - ERROR - x265 [info]: References / ref-limit  cu / depth  : 3 / off / on
2025-07-21 15:40:19,111 - ERROR - x265 [info]: AQ: mode / str / qg-size / cu-tree  : 2 / 1.0 / 32 / 1
2025-07-21 15:40:19,112 - ERROR - x265 [info]: Rate Control / qCompress            : CRF-18.0 / 0.60
2025-07-21 15:40:19,112 - ERROR - x265 [info]: tools: rd=3 psy-rd=2.00 early-skip rskip mode=1 signhide tmvp
2025-07-21 15:40:19,113 - ERROR - x265 [info]: tools: b-intra strong-intra-smoothing lslices=8 deblock
2025-07-21 15:40:19,114 - ERROR - x265 [info]: tools: dhdr10-info
2025-07-21 15:40:19,114 - ERROR - Output #0, matroska, to 'H:\staging\642bfe62-62a8-4539-8525-f4cb42665793\Inception_t01_x265.mkv':
2025-07-21 15:40:19,115 - ERROR - Metadata:
2025-07-21 15:40:19,116 - ERROR - title           : Inception
2025-07-21 15:40:19,116 - ERROR - encoder         : Lavf61.7.100
2025-07-21 15:40:19,117 - ERROR - Chapters:
2025-07-21 15:40:19,117 - ERROR - Chapter #0:0: start 0.000000, end 701.701000
2025-07-21 15:40:19,118 - ERROR - Metadata:
2025-07-21 15:40:19,119 - ERROR - title           : Chapter 01
2025-07-21 15:40:19,120 - ERROR - Chapter #0:1: start 701.701000, end 1297.296000
2025-07-21 15:40:19,120 - ERROR - Metadata:
2025-07-21 15:40:19,121 - ERROR - title           : Chapter 02
2025-07-21 15:40:19,122 - ERROR - Chapter #0:2: start 1297.296000, end 1880.295083
2025-07-21 15:40:19,122 - ERROR - Metadata:
2025-07-21 15:40:19,123 - ERROR - title           : Chapter 03
2025-07-21 15:40:19,124 - ERROR - Chapter #0:3: start 1880.295083, end 2481.979500
2025-07-21 15:40:19,124 - ERROR - Metadata:
2025-07-21 15:40:19,125 - ERROR - title           : Chapter 04
2025-07-21 15:40:19,125 - ERROR - Chapter #0:4: start 2481.979500, end 3073.695625
2025-07-21 15:40:19,126 - ERROR - Metadata:
2025-07-21 15:40:19,127 - ERROR - title           : Chapter 05
2025-07-21 15:40:19,127 - ERROR - Chapter #0:5: start 3073.695625, end 3681.511167
2025-07-21 15:40:19,128 - ERROR - Metadata:
2025-07-21 15:40:19,129 - ERROR - title           : Chapter 06
2025-07-21 15:40:19,129 - ERROR - Chapter #0:6: start 3681.511167, end 4229.600375
2025-07-21 15:40:19,130 - ERROR - Metadata:
2025-07-21 15:40:19,131 - ERROR - title           : Chapter 07
2025-07-21 15:40:19,132 - ERROR - Chapter #0:7: start 4229.600375, end 4935.555625
2025-07-21 15:40:19,132 - ERROR - Metadata:
2025-07-21 15:40:19,133 - ERROR - title           : Chapter 08
2025-07-21 15:40:19,134 - ERROR - Chapter #0:8: start 4935.555625, end 5512.465292
2025-07-21 15:40:19,134 - ERROR - Metadata:
2025-07-21 15:40:19,135 - ERROR - title           : Chapter 09
2025-07-21 15:40:19,136 - ERROR - Chapter #0:9: start 5512.465292, end 6038.490792
2025-07-21 15:40:19,136 - ERROR - Metadata:
2025-07-21 15:40:19,137 - ERROR - title           : Chapter 10
2025-07-21 15:40:19,138 - ERROR - Chapter #0:10: start 6038.490792, end 6682.133792
2025-07-21 15:40:19,139 - ERROR - Metadata:
2025-07-21 15:40:19,139 - ERROR - title           : Chapter 11
2025-07-21 15:40:19,140 - ERROR - Chapter #0:11: start 6682.133792, end 7254.372125
2025-07-21 15:40:19,140 - ERROR - Metadata:
2025-07-21 15:40:19,141 - ERROR - title           : Chapter 12
2025-07-21 15:40:19,142 - ERROR - Chapter #0:12: start 7254.372125, end 7808.717583
2025-07-21 15:40:19,142 - ERROR - Metadata:
2025-07-21 15:40:19,143 - ERROR - title           : Chapter 13
2025-07-21 15:40:19,144 - ERROR - Chapter #0:13: start 7808.717583, end 8455.447000
2025-07-21 15:40:19,145 - ERROR - Metadata:
2025-07-21 15:40:19,145 - ERROR - title           : Chapter 14
2025-07-21 15:40:19,146 - ERROR - Chapter #0:14: start 8455.447000, end 8888.298667
2025-07-21 15:40:19,147 - ERROR - Metadata:
2025-07-21 15:40:19,147 - ERROR - title           : Chapter 15
2025-07-21 15:40:19,148 - ERROR - Stream #0:0(eng): Video: hevc, yuv420p10le(tv, bt2020nc/bt2020/smpte2084, progressive), 3840x2160 [SAR 1:1 DAR 16:9], q=2-31, 23.98 fps, 1k tbn
2025-07-21 15:40:19,149 - ERROR - Metadata:
2025-07-21 15:40:19,149 - ERROR - BPS-eng         : 59230802
2025-07-21 15:40:19,150 - ERROR - DURATION-eng    : 02:28:08.296083333
2025-07-21 15:40:19,150 - ERROR - NUMBER_OF_FRAMES-eng: 213106
2025-07-21 15:40:19,151 - ERROR - NUMBER_OF_BYTES-eng: 65807612677
2025-07-21 15:40:19,152 - ERROR - SOURCE_ID-eng   : 001011
2025-07-21 15:40:19,153 - ERROR - _STATISTICS_WRITING_APP-eng: MakeMKV v1.18.1 win(x64-release)
2025-07-21 15:40:19,154 - ERROR - _STATISTICS_WRITING_DATE_UTC-eng: 2025-06-01 18:54:30
2025-07-21 15:40:19,154 - ERROR - _STATISTICS_TAGS-eng: BPS DURATION NUMBER_OF_FRAMES NUMBER_OF_BYTES SOURCE_ID
2025-07-21 15:40:19,155 - ERROR - encoder         : Lavc61.19.101 libx265
2025-07-21 15:40:19,156 - ERROR - Side data:
2025-07-21 15:40:19,156 - ERROR - Mastering Display Metadata, has_primaries:1 has_luminance:1 r(0.6800,0.3200) g(0.2650,0.6900) b(0.1500 0.0600) wp(0.3127, 0.3290) min_luminance=0.005000, max_luminance=4000.000000
2025-07-21 15:40:19,157 - ERROR - Content Light Level Metadata, MaxCLL=1538, MaxFALL=308
2025-07-21 15:40:19,158 - ERROR - cpb: bitrate max/min/avg: 0/0/0 buffer size: 0 vbv_delay: N/A
2025-07-21 15:40:19,158 - ERROR - Stream #0:1(eng): Audio: dts (DTS-HD MA) ([1] [0][0] / 0x2001), 48000 Hz, 5.1(side), s32p (24 bit) (default)
2025-07-21 15:40:19,159 - ERROR - Metadata:
2025-07-21 15:40:19,160 - ERROR - title           : Surround 5.1
2025-07-21 15:40:19,160 - ERROR - BPS-eng         : 3821195
2025-07-21 15:40:19,161 - ERROR - DURATION-eng    : 02:28:08.298666666
2025-07-21 15:40:19,161 - ERROR - NUMBER_OF_FRAMES-eng: 833278
2025-07-21 15:40:19,162 - ERROR - NUMBER_OF_BYTES-eng: 4245491016
2025-07-21 15:40:19,162 - ERROR - SOURCE_ID-eng   : 001100
2025-07-21 15:40:19,163 - ERROR - _STATISTICS_WRITING_APP-eng: MakeMKV v1.18.1 win(x64-release)
2025-07-21 15:40:19,164 - ERROR - _STATISTICS_WRITING_DATE_UTC-eng: 2025-06-01 18:54:30
2025-07-21 15:40:19,165 - ERROR - _STATISTICS_TAGS-eng: BPS DURATION NUMBER_OF_FRAMES NUMBER_OF_BYTES SOURCE_ID
2025-07-21 15:40:19,165 - ERROR - Stream #0:2(eng): Audio: dts (DTS) ([1] [0][0] / 0x2001), 48000 Hz, 5.1(side), fltp, 1536 kb/s
2025-07-21 15:40:19,166 - ERROR - Metadata:
2025-07-21 15:40:19,166 - ERROR - title           : Surround 5.1
2025-07-21 15:40:19,167 - ERROR - BPS-eng         : 1509000
2025-07-21 15:40:19,168 - ERROR - DURATION-eng    : 02:28:08.298666666
2025-07-21 15:40:19,169 - ERROR - NUMBER_OF_FRAMES-eng: 833278
2025-07-21 15:40:19,169 - ERROR - NUMBER_OF_BYTES-eng: 1676555336
2025-07-21 15:40:19,170 - ERROR - SOURCE_ID-eng   : 001100
2025-07-21 15:40:19,171 - ERROR - _STATISTICS_WRITING_APP-eng: MakeMKV v1.18.1 win(x64-release)
2025-07-21 15:40:19,171 - ERROR - _STATISTICS_WRITING_DATE_UTC-eng: 2025-06-01 18:54:30
2025-07-21 15:40:19,172 - ERROR - _STATISTICS_TAGS-eng: BPS DURATION NUMBER_OF_FRAMES NUMBER_OF_BYTES SOURCE_ID
2025-07-21 15:40:19,173 - ERROR - Stream #0:3(eng): Audio: ac3 ([0] [0][0] / 0x2000), 48000 Hz, 5.1(side), fltp, 640 kb/s
2025-07-21 15:40:19,173 - ERROR - Metadata:
2025-07-21 15:40:19,174 - ERROR - title           : Surround 5.1
2025-07-21 15:40:19,175 - ERROR - BPS-eng         : 640000
2025-07-21 15:40:19,175 - ERROR - DURATION-eng    : 02:28:08.288000000
2025-07-21 15:40:19,176 - ERROR - NUMBER_OF_FRAMES-eng: 277759
2025-07-21 15:40:19,177 - ERROR - NUMBER_OF_BYTES-eng: 711063040
2025-07-21 15:40:19,177 - ERROR - SOURCE_ID-eng   : 001102
2025-07-21 15:40:19,178 - ERROR - _STATISTICS_WRITING_APP-eng: MakeMKV v1.18.1 win(x64-release)
2025-07-21 15:40:19,179 - ERROR - _STATISTICS_WRITING_DATE_UTC-eng: 2025-06-01 18:54:30
2025-07-21 15:40:19,179 - ERROR - _STATISTICS_TAGS-eng: BPS DURATION NUMBER_OF_FRAMES NUMBER_OF_BYTES SOURCE_ID
2025-07-21 15:40:19,180 - ERROR - Stream #0:4(eng): Subtitle: hdmv_pgs_subtitle ([255][255][255][255] / 0xFFFFFFFF)
2025-07-21 15:40:19,181 - ERROR - Metadata:
2025-07-21 15:40:19,181 - ERROR - BPS-eng         : 32740
2025-07-21 15:40:19,182 - ERROR - DURATION-eng    : 02:27:01.833854166
2025-07-21 15:40:19,182 - ERROR - NUMBER_OF_FRAMES-eng: 3476
2025-07-21 15:40:19,183 - ERROR - NUMBER_OF_BYTES-eng: 36103846
2025-07-21 15:40:19,184 - ERROR - SOURCE_ID-eng   : 0012A1
2025-07-21 15:40:19,185 - ERROR - _STATISTICS_WRITING_APP-eng: MakeMKV v1.18.1 win(x64-release)
2025-07-21 15:40:19,185 - ERROR - _STATISTICS_WRITING_DATE_UTC-eng: 2025-06-01 18:54:30
2025-07-21 15:40:19,186 - ERROR - _STATISTICS_TAGS-eng: BPS DURATION NUMBER_OF_FRAMES NUMBER_OF_BYTES SOURCE_ID
2025-07-21 22:10:37,211 - ERROR - [out#0/matroska @ 0000021801edb800] video:13293783KiB audio:6477646KiB subtitle:35258KiB other streams:0KiB global headers:3KiB muxing overhead: 0.076729%
2025-07-21 22:10:37,213 - ERROR - x265 [info]: frame I:   1801, Avg QP:18.23  kb/s: 41758.69
2025-07-21 22:10:37,214 - ERROR - x265 [info]: frame P:  49587, Avg QP:19.93  kb/s: 22836.97
2025-07-21 22:10:37,214 - ERROR - x265 [info]: frame B: 161718, Avg QP:22.95  kb/s: 8672.18
2025-07-21 22:10:37,215 - ERROR - x265 [info]: Weighted P-Frames: Y:2.8% UV:1.6%
2025-07-21 22:10:37,216 - ERROR - encoded 213106 frames in 23418.11s (9.10 fps), 12247.76 kb/s, Avg QP:22.21
2025-07-21 22:10:37,703 - INFO - Successfully completed: Re-encoding to x265
2025-07-21 22:10:37,773 - INFO - Starting step: move_final - Moving final file to destination
2025-07-21 22:10:37,781 - INFO - Moving final file from H:\staging\642bfe62-62a8-4539-8525-f4cb42665793\Inception_t01_x265.mkv to Z:\landing_point\Video\Inception\Inception_t01_x265.mkv
2025-07-21 22:13:34,191 - INFO - Move successful.
2025-07-21 22:13:34,270 - INFO - === transcode() completed successfully for job 642bfe62-62a8-4539-8525-f4cb42665793 ===
2025-07-21 22:13:34,337 - INFO - Cleaning up job staging directory: H:\staging\642bfe62-62a8-4539-8525-f4cb42665793
